<?xml version="1.0" encoding="UTF-8" standalone="no"?>
<!DOCTYPE svg PUBLIC "-//W3C//DTD SVG 1.1//EN" "http://www.w3.org/Graphics/SVG/1.1/DTD/svg11.dtd">
<svg width="100%" height="100%" viewBox="0 0 1024 1024" version="1.1" xmlns="http://www.w3.org/2000/svg" xmlns:xlink="http://www.w3.org/1999/xlink" xml:space="preserve" xmlns:serif="http://www.serif.com/" style="fill-rule:evenodd;clip-rule:evenodd;stroke-linecap:round;stroke-linejoin:round;stroke-miterlimit:1.5;">
    <g transform="matrix(2.40201,0,0,2.37119,495.114,898.285)">
        <path d="M-5.86,-180.526C-14.233,-151.818 -25.22,-124.094 -56.858,-113.484C-88.624,-102.832 -127.786,-112.971 -150.792,-131.722C-149.722,-125.882 -148.318,-120.064 -146.564,-114.302C-124.098,-40.497 -43.98,7.171 30.72,-1.884L-5.86,-180.526Z" style="fill:rgb(245,158,11);fill-rule:nonzero;"/>
    </g>
    <g transform="matrix(2.40201,0,0,2.37119,690.262,268.855)">
        <path d="M-4.016,53.31C25.192,42.52 58.633,51.295 78.357,68.674C77.494,63.232 76.34,57.788 74.881,52.371C55.408,-19.888 -14.739,-65.813 -91.924,-60.204L-58.763,121.553C-51.632,92.868 -33.955,64.37 -4.016,53.31Z" style="fill:rgb(245,158,11);fill-rule:nonzero;"/>
    </g>
    <g transform="matrix(2.54696,0,0,2.51428,-13691.3,-1328.19)">
        <ellipse cx="5577.07" cy="732.257" rx="184.97" ry="188.468" style="fill:none;stroke:rgb(245,158,11);stroke-width:28.16px;"/>
    </g>
    <g transform="matrix(0,-2.37119,-2.40201,0,288.291,294.792)">
        <path d="M-62.059,-62.059C-96.333,-62.059 -124.118,-34.274 -124.118,0C-124.118,34.274 -96.333,62.059 -62.059,62.059C-27.785,62.059 0,34.274 0,0C0,-34.274 -27.785,-62.059 -62.059,-62.059" style="fill:rgb(245,158,11);fill-rule:nonzero;"/>
    </g>
    <g transform="matrix(0,-2.37119,-2.40201,0,749.942,433.24)">
        <path d="M-62.059,-62.059C-96.333,-62.059 -124.118,-34.274 -124.118,0C-124.118,34.274 -96.333,62.059 -62.059,62.059C-27.785,62.059 0,34.274 0,0C0,-34.274 -27.785,-62.059 -62.059,-62.059" style="fill:rgb(245,158,11);fill-rule:nonzero;"/>
    </g>
</svg>
